<mxfile host="65bd71144e">
    <diagram id="kXYlM1xM1S9b_V1S5Y1h" name="Page-1">
        <mxGraphModel dx="952" dy="400" grid="1" gridSize="10" guides="1" tooltips="1" connect="1" arrows="1" fold="1" page="1" pageScale="1" pageWidth="827" pageHeight="1169" math="0" shadow="0">
            <root>
                <mxCell id="0"/>
                <mxCell id="1" parent="0"/>
                <UserObject label="https://is2.4chan.org/gif/1627664773758.webm" link="https://is2.4chan.org/gif/1627664773758.webm" id="2">
                    <mxCell style="text;whiteSpace=wrap;html=1;" vertex="1" parent="1">
                        <mxGeometry x="10" y="10" width="280" height="30" as="geometry"/>
                    </mxCell>
                </UserObject>
            </root>
        </mxGraphModel>
    </diagram>
</mxfile>